<?xml version="1.0" encoding="utf-8"?>
<!-- Generator: Adobe Illustrator 25.4.1, SVG Export Plug-In . SVG Version: 6.00 Build 0)  -->
<svg version="1.1" id="Layer_1" xmlns="http://www.w3.org/2000/svg" xmlns:xlink="http://www.w3.org/1999/xlink" x="0px" y="0px"
	 viewBox="0 0 47.4 968.6" style="enable-background:new 0 0 47.4 968.6;" xml:space="preserve">
<style type="text/css">
	.st0{fill-rule:evenodd;clip-rule:evenodd;fill:#0D0D0D;}
</style>
<g id="Design">
	<g id="nint2313-splatoon3-full-site-wires-world-xxl" transform="translate(0.000000, -59.000000)">
		<path id="Fill-1-Copy-2" class="st0" d="M47,59L9.9,59.7c-0.1,0.9-0.2,1.7-0.3,2.6c-0.3,3-1.1,5.8-1.7,8.6c0,0,0,0,0,0
			C8,76.6-0.7,81.9,0,87.3c0.2,1.4,4.7,4.8,4.5,6.2c-0.4,3.4,0,5.9,1.1,7.4c2,2.7-1.2,5.2,0.2,9.5c0.5,1.7,1,3.5,1,5.8c0,0,0,0,0,0
			c0.6,1.5,0.5,3.5,0.6,5.4c0.1,5.4,0.6,10.4,1.3,15.4c0.9,2.5-0.6,7.1,0.5,8.8c1.7,0.1,2.5,3.3,3.1,6.9c0.7,3.9-1.6,11.5,1.9,12.1
			c0.7,0.1,0.2,1.4,0.2,2.1c0,4.2,2.9,5.6,3.9,8.7c0.9,2.7,1.1,5.9,0.6,9.6c-0.5,3.3-0.8,6.7-1,10.1c-0.6,9.1,8.8,12.6,7,20.6
			c-0.6,3.3-1.2,6.5-1.6,10.1c-0.3,3.2-0.7,6.7-1.9,8.7c-0.2,1.5-0.3,3-0.5,4.5c0,0.8-0.2,1.4-0.5,1.7l0,0c0,2.7,0,5.4,0.4,8
			c0.2,1,0.3,2.4,0.3,3.6c-0.1,4,0.6,7.1,1.2,10.3c0.4,2.1,1.2,4,1,6.6c-0.2,2.5,0.6,3.4,0.8,5.2c0.4,0.8,0.9,1.4,1.3,2.4
			c1,2.6,2,3.2,3.4,1.6c1.3-1.5,2.3-0.1,3.2,3.2c0.5,1.8,0.8,8.5,0.6,11.8c0,2.2-10.6,9.6-10.4,11.7c0.3,3.5,0.3,7-0.1,10.3
			c-0.5,4.8-0.4,9.6,0,14c0.5,6,0.7,11.9,0.8,18.1c0.1,5.7,0.1,11.3,0.1,16.9c0,1.7,0,3.5,0.1,5.2c0.4,6.5,0.1,12.8-0.9,18.9
			c-0.2,0.9-0.2,1.9-0.4,2.8c-0.6,2.9-6.4,8.4-6.2,11.3c0.1,1.4,0.3,2.8,0.5,4.2c0.3,2.4,0.5,4.7,0,7.2c-0.5,2.6-0.3,4.7,0.5,6.6
			c1.4,3.5,1.9,7.9,1.7,13.3c-0.1,2.7,6.1,2.8,6.3,5.4c0.5,7.3-5.7,13.6-6.6,20.8c0.1,4.4,6.1,10,6.6,14.2c0.2,2.1,0.1,4.3,0,6.6
			c-0.3,4.4-0.3,8.7-0.1,13.1c0.4,6.6,0.3,13.2-0.7,19.5c-0.2,5.1-0.2,10.4-2.1,13.8c-0.3,0.6-0.5,2.1-0.7,3.2
			c-0.3,2.6-0.6,5.2-1.3,7.3c-0.3,0.8-0.4,2.2-0.5,3.4c-0.5,4.4-0.5,8.6,0,13c0.8,6.4,0.7,12.9-0.5,19.4c-0.8,4.7-1.6,9.5-2.1,14.7
			c0,0.4,0.1,0.8,0.1,1.3c1.7,4.4,2.6,10,3.4,15.8c0.9,4.1,1.2,9,1.9,13.5c0.5,3.4-1.4,4.9-1.5,8.6c-0.1,4.8,0.3,9.3,1,13.6
			c0.6,4.4,2.8,11.4,2.4,16c-0.2,1.9-0.3,3.6-0.3,5.6c0.1,3.2-2.2,2.9-2.2,6.1c0,1.5,0,3-0.4,4.2c-1.1,3.1-3,12.8-4.1,15.8
			c1.3,6.1,1.1,10.1-0.8,16.3c-0.1,0.2-0.3,0.4-0.4,0.7c0,0,0,0.1,0,0.1c0.3-0.4,0.5-0.5,0.8,0c0.6,2.4,0.4,4.8-0.2,6.9
			c-1.1,3.9,6.8,3.3,6,7.6c-0.7,2.6-0.9,6.1-2.1,7.9c-0.9,2.2-1.7,4.4-2.6,6.7c-0.5,2.6-0.7,5,0.2,7.1c0.2,0.5,0.3,1.1,0.5,1.7
			c0.1,1.3,0.7,2.6,0.3,4c-1,3.6-1.2,8.2-2.3,11.6c0,0-0.1-0.1-0.1-0.1c-0.1,0.1-0.3,0.2-0.4,0.2c0,2.9-0.2,6,0.7,8.3
			c0.2,0.4,0.2,1.3,0.2,2c0.2,4.4,0.3,8.8,0.5,13.1c1,0.5,1.1,0.8,0.6,2.8c0.1,0,0.2,0,0.2,0c2,3.6-1.3,12-0.8,18.9
			c1,13.5,2.9,26.5,4.2,39.8c0.2,0.5,0.4,0.9,0.6,1.4l0,0l0,0c0.1,0.3,0.3,0.6,0.4,1c0.3,5.8-2,6.8-2.1,13c0,1.4,0.3,2.8,0.5,4.1
			c1.4,7.9,1.1,16.7,1.4,25.2c0.1,1.5-0.2,2.9-0.6,4c-1.4,3.1,1.1,10.4-0.8,11.4l0,0c-0.7,1.7-1.4,3.3-2.1,5
			c-0.9,1.3-1.1,3.9-1.5,6.1c-0.5,2.6-1,4.8-2.1,5.2c-0.2,0.1-0.4,0.1-0.5,0.2c-0.9,4-2.4,4.4-3.8,5.2l0,0c0,0,0,0,0,0
			c-1,1.9-1.3,4.7-1.5,7.7c-0.1,1.3,2.2,2.2,1.7,3c-0.8,2.8-1,6.2-1.5,9.3c-0.1,0.6-0.3,1.1-0.5,1.6l0,0c0,1.2-0.1,2.3-0.5,3.1l0,0
			c0,0.5,0,1,0,1.5c0.3-0.1,0.7-0.1,1-0.2c0.1,1.9-2.1,4.2-2,6.1c0,0-0.1,0.1-0.1,0.1c0,0,0,0,0,0.1c0,0,0.1-0.2,0.1-0.2
			c0.2,0.5,0.4,0.9,0.6,1.4c0.4-0.6,0.7,3.7,1.1,3.1c1.4-2,2.1-1.6,3,1.8c0.4,1.8,0.7,1.6,0.6,3.9c-0.1,3.3,0.7,3.6,1,6.6
			c0.4,3.7,2.8,4.4,3.1,8.2c0.2,3.4,2,5.8,1,8.9c-0.3,1.1,10.8,7.7,10.5,9c-0.2,0-0.4,0.1-0.6,0.1c-0.4,1.6-0.8,3.4-1.3,4.7
			c-1,2.6,0.4,3.6,0.3,5.6c-0.1,0.9-0.2,1.9-0.3,2.8c-0.3,4.3-1.1,8.3-1,12.8c0,0.1,0.1,0.1,0.1,0.2l21.9-0.1L47,59z"/>
	</g>
</g>
</svg>
